<?xml version="1.0" encoding="utf-8"?>
<!-- Generator: Adobe Illustrator 20.1.0, SVG Export Plug-In . SVG Version: 6.00 Build 0)  -->
<svg version="1.1" id="Layer_1" xmlns="http://www.w3.org/2000/svg" xmlns:xlink="http://www.w3.org/1999/xlink" x="0px" y="0px"
	 viewBox="0 0 1920 1080" style="enable-background:new 0 0 1920 1080;" xml:space="preserve">
<style type="text/css">
	.st0{fill:#3A3A3A;}
	.st1{fill:#383838;}
	.st2{fill:#373737;}
	.st3{fill:#363636;}
	.st4{fill:#3A3A3A;}
	.st5{fill:#333333;}
	.st6{fill:#333333;}
	.st7{fill:#3E3E3E;}
	.st8{fill:#323232;}
	.st9{fill:#414141;}
	.st10{fill:#3F3F3F;}
	.st11{fill:#424242;}
	.st12{fill:#3A3A3A;}
	.st13{fill:#494949;}
	.st14{fill:#353635;}
	.st15{fill:#404040;}
	.st16{fill:#393939;}
	.st17{fill:#303030;}
	.st18{fill:#313131;}
	.st19{fill:#383838;}
	.st20{fill:#343434;}
	.st21{fill:#444444;}
	.st22{fill:#3D3D3D;}
	.st23{fill:#484848;}
	.st24{fill:#454545;}
	.st25{fill:#3C3C3C;}
	.st26{fill:#464646;}
	.st27{fill:#444444;}
	.st28{fill:#434343;}
	.st29{fill:#3E3E3E;}
	.st30{fill:#323232;}
	.st31{fill:#3C3C3C;}
</style>
<g>
	<path class="st0" d="M878,1082c-53.3,0-106.7,0-160,0c-5.5-2.5-8.3-7-10.1-12.5c-3.4-10.4-7.5-20.6-9.4-31.4
		c-0.4-2.2-1.5-3-2.3-4.4c-1.8-1.8-4.4-2.4-6.5-3.8c-0.5-8-7.7-9.2-12.7-12.8c-16.7-12.1-33.3-24.3-49.9-36.6
		c-62.6-46.2-125-92.6-187.9-138.4c-8.7-6.4-15.6-14.7-24.2-21.2c-1.7-1.3-3.9-2.8-3.1-5.7c0.2-1.2,0.7-2.2,1.5-3.1
		c47.9-7,95.7-14.8,143.7-21.6c38-5.4,75.6-13,113.9-16.2c0.8-0.1,2.3-1.1,3-2.3c2.1-2.5,1.6-4.1-0.8-6.5
		c-9.1-9.1-15.2-20.4-22.6-30.7c-2.2-3-5.3-6.4-1.1-10.4c17.9-28,38.9-53.6,59.8-79.3c5.2-6.4,8.4-13.4,10.5-21.3
		c9.4-34.7,17.8-69.7,27.2-104.4c3.2-11.9,5.8-13.6,16.2-12c3.2,3.7,3.8,8.4,4.6,13c20.7,116.9,40.5,234,61.4,350.8
		c1.2,6.6-1.5,14.1,4,19.8c3.9,2.6,7-0.3,10.2-1.6c35.2-13.9,70.2-28.5,105.7-41.9c4.4-1.6,8.7-3.4,13.5-3
		c7.3,0.1,13.5,3.6,19.6,6.7c38.2,19,78,34.9,114.9,56.4c5.2,3,9.5-0.2,13.9,1.8c14.3,11.3,31.5,17.1,47.5,25.1
		c6,2.9,11.7,6,16.9,10.4c3.1,2.6,4.2,4.4,2.9,7.9c-5.3,3.2-10.9,1.8-16.5,1.2c-28.7-3.5-57-9.2-85.9-11.2c-1.6-1.2-3.1-2.9-5.1-3.1
		c-73-7.3-145.3-20.2-218-29.9c-13.1-1.7-16,1.2-12.3,14.2c12.9,45.8,25.3,91.8,37.9,137.6C879.9,1068.1,885.2,1075.3,878,1082z"/>
	<path class="st1" d="M892,2c60.7,0,121.3,0,182,0c6.3,2.6,8,8.1,9.2,14c9.5,46.9,20.2,93.5,28.9,140.5c0.3,1.7,1,3.1,1.8,4.5
		c8.3,14.9,12.2,31.5,16.8,47.7c4,14,5.8,14.8,18.5,9c10.3-4.8,16.4-4,24.4,3.8c28.9,28.4,57.4,57.2,86,85.9
		c3.9,3.9,5.9,9.6,11.6,11.6c0.7,0.7,1.2,1.6,1.5,2.5c0.1,1,0.1,1.9,0,2.9c-25,39.3-50.2,78.5-75.5,117.6c-1.9,3-4.4,5.9-4.2,9.9
		c1.5,11.9,6.8,22.7,10,34.1c12.7,46.5,25.4,93,38.8,139.4c1.3,4.5,1.3,9.2,3.3,13.5c10.2,32.9,18.4,66.4,28.1,99.5
		c3,10.2,5.6,20.5,8.4,30.7c1.2,4.3,0.8,8.1-1.7,11.8c-3.9,3.6-8,2.4-12,0.3c-45.7-24.2-91.4-48.5-137.3-72.4
		c-6.1-3.2-10.4-9.7-18.4-9.4c-2,0.1-2.6-2.7-2.7-4.7c4.2-14.6,7.8-29.4,12.1-44c17.3-59,35.3-117.8,51.9-177.1
		c2-7,7.8-13.2,5.4-21.4c-0.5-0.9-0.9-1.8-1.4-2.7c0.5-4.2-0.1-7.4-5.1-8.9c-1.6-0.5-3.6-2.1-5.2-3.8
		c-23.3-23.8-48.5-45.9-69.9-71.6c-1-1.2-2.7-1.9-4-2.9c-18.9-18-38.7-35-56.9-53.9c-3.2-3.4-4.4-8.4-8.9-10.5
		c-18.9-15.9-35.4-34.3-53-51.6c-5.4-5.4-10.4-11.3-17.1-15.2c-25.3-24.8-50.1-50.2-75.3-75.1c-10.8-10.7-21.3-21.8-32.9-31.8
		c-5.5-4.8-10.2-10.9-13.9-17.4c3.1-6.7,8.7-5.5,14.1-4.4c29.4,5.8,58.6,12.5,88,18.6c47,9.7,93.8,20.3,140.8,29.9
		c4.5,0.9,9,2,12.8,4.7c-33.2-22.7-65.1-47.2-97.4-71.1c-32.5-23.9-65-47.6-97.1-72C893,10.2,887.2,8.1,892,2z"/>
	<path class="st2" d="M2,484c0-50.7,0-101.3,0-152c4.9-6.7,11.3-9.5,19.7-9.6c22-0.1,43.3-5.3,64.9-8.5c10.5-1.5,21-2.7,31.4-4.4
		c9.1-0.4,12.1,7.6,16.3,13c8.2,10.8,15.7,22.2,23.3,33.5c24.5,35.9,48.9,71.9,73.7,107.5c2.8,4.1,4.4,8.9,7.5,12.8
		c19.9,27.7,40.7,54.9,56.4,85.5c0.3,1.2,0.2,2.2-0.4,3.3c-0.8,0.8-1.8,1.4-2.9,1.6c-12-3.1-24.4-2-36.6-3.2
		c-52.3-4.8-104.6-9-156.9-14.1c-1-0.1-2-0.2-3-0.2c-2.9,0.1-6.5-0.9-7.9,2.5c-1.2,2.9,1.5,4.9,3.3,6.7c8.9,9,17.5,18.3,27,26.7
		c21.4,19,41.4,39.5,62.4,58.9c9.5,8.8,18.5,18.2,28.5,26.5c7.4,6.1,13.2,13.1,11.3,23.7c-3.8,4.8-9.7,5.3-14.9,7
		c-36.1,11.1-72.2,22.2-108.3,33.1c-6,1.8-11.7,4.4-17.4,7c-2.7-1.1-5.2-1.5-8.4-0.5c-19.1,6-38.9,9.5-58.4,13.9
		c-3.9,0.9-7.9,1.4-10.6-2.8c0-70,0-140,0-210c3.2-4.2,7.6-5.1,12.6-5.1c12.9,0.1,25.9,0.3,40.4-0.2c-6.4-9.2-14.9-14-21.7-20.4
		c-6.3-5.9-13.3-11.1-19.8-16.8C8.4,495.2,4.8,489.9,2,484z"/>
	<path class="st3" d="M102,2c59.3,0,118.7,0,178,0c15.4,7.3,24.2,21.7,35.3,33.4c12.8,13.5,24.8,27.7,37.4,41.4
		c2.9,3.2,6,6.3,5.3,11.2c4.2,30,6.2,60.3,9.1,90.4c4.5,47,8.9,94.1,13.2,141.2c1.7,18.5,3.5,37,4.6,55.6c-0.3,1.2-0.9,2.2-1.6,3.2
		c-1.5,1.2-3.2,0.8-4.8,0.4c-4.6-0.7-7-2.5-9.9-7.1c-4.5-7-12.4-11.8-18.9-17.6c-22.2-19.6-43.6-40-65.3-60.1
		c-44.9-41.5-89.6-83.3-134.6-124.6c-18.1-16.6-35.6-33.9-54.3-50c-2.8-2.4-3.3-4.7-1.6-7.7c1-4.4-2.3-8.1-2.3-12.4
		C91,94,91.9,89.4,95,84.6c4.6-7,1.1-15.3,0.9-23c-0.4-14-1.3-28-0.9-42C95.2,12.8,96.5,6.6,102,2z"/>
	<path class="st4" d="M1512,2c134,0,268,0.1,402-0.2c6.8,0,8.2,1.3,8.2,8.2c-0.3,72.7-0.2,145.3-0.2,218c-3.6,8.2-1.9,17.2-3.8,25.7
		c-1.2,5.5-2.3,10.2-8.6,11.5c-1.9,0.1-3.8,0.1-5.7,0.5c-7.2-7.7-17.6-9.6-26.2-14.9c-8-2.8-11-10.9-16.8-15.7
		c-7.6-6.2-16.1-11.5-24.6-16.5c-52.6-30.7-102.8-65.1-154-98c-5.4-3.4-9.1-9.7-16.3-10c-48.6-33.4-98.6-64.7-147.8-97.3
		C1514.6,11.1,1506.6,9.8,1512,2z"/>
	<path class="st2" d="M1908,262c6-5.4,7.7-12.8,9-20.3c0.9-4.9,1.9-9.7,4.9-13.8c0,192.7,0,385.3,0,578c-5.7,4.7-9.4-0.6-12.9-3.3
		c-26.2-19.5-51.9-39.6-77.8-59.4c-10.3-7.9-20.9-15.4-30.8-23.8c-2.4-2.1-6.1-3.3-5.4-7.6c0-1.1,0.1-2.1,0.5-3.1
		c0.1-19.4,2.7-38.6,5.2-57.9c6.3-49.4,12-99,18.2-148.4c0.7-6,4.3-11.1,4.1-17.2c6.2-31.2,20.3-59.8,30.8-89.5
		c13.8-38.8,28.5-77.4,43-115.9C1899.4,273.2,1900.8,265.7,1908,262z"/>
	<path class="st5" d="M98,114c54.3,50.6,108.5,101.2,162.8,151.7c39,36.2,78.1,72.3,117.2,108.4c-2.4,4.5-6.3,4.5-10.5,3.6
		c-8.3-1.8-16.6-4.1-25.1-4.8c-2.6-1.4-4.8-3.2-7.9-3.9c-65.5-15.2-130.7-31.9-195.8-48.8c-6.6-1.7-11.8-5.7-17.4-9
		c-7.4,1.5-10.8-4.2-14.4-8.7c-16.3-20.2-32.5-40.5-48.7-60.8c-12.3-15.3-24.4-30.8-36.6-46.2C13.7,185.7,5.7,176.2,2,164
		c0-28.7,0-57.3,0-86c4.2-3.6,8.7-2.3,13.1-0.7c24,8.7,47.7,18.3,71.5,27.3C91.6,106.5,95.2,109.7,98,114z"/>
	<path class="st6" d="M354.1,86.1c-23.1-25.5-46.3-51-69.4-76.6c-2-2.2-3.2-5-4.8-7.5c125.3,0,250.7,0,376,0
		c41.2,13.4,75.5,39.8,113.5,59.4c19.5,10.1,38.4,21.3,57.4,32.2c4.9,2.8,10,5.7,9,12.8c-0.5,1.1-1.2,1.9-2.3,2.5
		c-13.6,2.1-27.3,0.7-40.7-0.4c-17.6-1.5-35.3-2-52.8-2.9c-45.5-2.2-91.1-4.8-136.6-7.1c-16.1-0.8-32.9,1.4-48.6-4.7
		c-4.8-1.9-8,4.2-12.6,1.8c-13.5-1.8-27,0.1-40.6-0.5c-2.3-0.1-4.6,0.9-6.8-0.3c-1.8-1.9-4.4-2.8-6.7-2.6
		c-40.8,3.5-81.5-2.4-122.3-1.3C361.1,91,357.1,90,354.1,86.1z"/>
	<path class="st7" d="M1532,1082c-78,0-156,0-234,0c-8.8-2.2-14.1-9-19.7-15.3c-19.7-22.3-40.7-43.6-59.1-67.1
		c-7.3-6.5-14-13.6-20.3-21c-2.8-3.2-7.2-6.5-3.8-12c0.6-0.8,1.2-2.1,1.9-2.2c19.3-1,30.9-15.7,45.2-25.5
		c33.2-22.8,67.7-43.3,103.5-61.6c3.9-2,8-3.2,12-4.8c5.9-1.6,8.3,3.4,11.1,6.6c47.9,57.1,96.3,113.7,144,170.9
		c5.5,6.6,11.4,13,16.8,19.7C1532.4,1073.3,1536.2,1077,1532,1082z"/>
	<path class="st8" d="M1797.9,711.9c31.3,23.7,62.6,47.4,93.9,71.1c10.1,7.6,20.1,15.3,30.2,23c0,15.3,0,30.7,0,46
		c-3.2,4-7.4,5.1-12.3,5c-47.4-0.8-94.8-1.5-142.1-3.5c-12.9-0.6-25.9-0.3-38.8-0.5c-4.6,0-9.4,0.9-10.9-5.7c-0.8-3.4-4.9-3-7.5-4.4
		c-15.5-8.2-29.6-18.5-44.2-27.9c-44.5-28.6-88.7-57.6-133.3-86c-6.1-3.9-11.4-8.8-16.8-13.5c-3.8-3.3-4.1-6.7,0.9-9.4
		c4.6-1.3,9.3-1,13.9-1c48.9,0,97.9-1.1,146.8,0.4c33.3,1,66.5,1.1,99.8,1.8C1784.5,707.4,1791.9,707.1,1797.9,711.9z"/>
	<path class="st9" d="M1726,848c65.3,1.3,130.7,2.7,196,4c0,74-0.1,148,0.2,222c0,6.9-1.3,9.2-8.2,8.1c-4.6-0.7-9.3-0.1-14-0.1
		c-17.3-3-31.5-12.8-46.1-21.4c-29.2-17.2-58.5-34.1-87.4-51.6c-4.4-2.7-9.7-4.6-11.7-10.2c1.3-6.8-2.8-12.3-4.1-18.5
		c-9-39.9-18-79.8-26.6-119.8c-0.8-3.9-1.6-7.9,0.4-11.7C1725,848.5,1725.5,848.2,1726,848z"/>
	<path class="st5" d="M1110,164c-8.5-27.3-12.5-55.6-18.8-83.3c-6-26.2-10.2-52.7-17.2-78.7c27.3,0,54.7,0,82,0
		c23.3,6.7,40,24.1,59.4,37.1c12.1,8.1,23.8,17,35.7,25.5c2.3,1.7,4.8,4.6,7.9,2.7c2.9-1.8,2-5.4,1.7-8.3
		c-1.7-15.8-3.3-31.7-4.1-47.6c-0.2-3.9,0.3-7,3.4-9.4c15.3,0,30.7,0,46,0c9.3,2.9,15.8,9.5,22.4,16.2c20.6,20.7,41.3,41.4,62,62
		c4,4,8.2,7.9,10.9,12.8c1.2,2.3,5.2,4.6,2.2,8.2c-2.3,2.7-5.5,3.9-9,3.5c-11.5-1.3-23.1-2.7-34.6-4.2c-23.7-3-47.4-6.4-71.1-9.1
		c-6-0.7-11.2-4.5-17.4-3.3c-1,0.1-2,0.2-3,0.4c-6.7,2.3-12.6,6.5-18.9,9.7c-41.7,21.2-84.1,40.9-125.2,63.3
		C1119.9,163.9,1115.4,167,1110,164z"/>
	<path class="st5" d="M834,105.9c0-0.6,0-1.3,0-1.9c-2-29.6-0.6-59.2-1-88.8C833,10,833.8,5.4,838,2c18,0,36,0,54,0
		c29.7,24.7,61.7,46.5,92.6,69.6c37,27.8,74.4,55.1,111.6,82.6c2.1,1.5,4.7,2.7,5.4,5.8c-3.6,2.3-7.1,0.2-10.4-0.5
		c-75.9-16.1-151.8-32.4-227.7-48.5c-8.4-1.8-16.6-5.2-25.5-3c9.1,12.2,10,26.9,12.6,41c12.4,68.5,25,136.9,37.4,205.4
		c1.2,6.4,3.8,12.9,0.9,19.5c-5.2,5.7-8.2,1.8-11-2.6c-9.2-15.1-17.4-30.7-26-46.1c-12.5-22.3-25.1-44.7-37.5-67.1
		c-1.8-3.2-3.9-6.3-3.5-10.2c0-1.1,0.1-2.2,0.3-3.2c1.9-30.1,8-59.5,12.6-89.1C826.6,138.8,827.4,121.8,834,105.9z"/>
	<path class="st7" d="M878,1082c-15.1-55.2-30.3-110.5-45.4-165.7c-3.7-13.7-2.2-15.2,12-13.2c73.8,10.6,147.7,21.3,221.5,31.9
		c3.3,0.5,6.6,0.7,9.9,1c4.3,3.8,3.1,7.5-0.7,10.6c-22.4,18.4-41.1,40.5-61.1,61.4c-4.9,5.2-10.1,8.2-17.6,5.4
		c-6.3-2.4-10.7,1.3-14.4,6c-8.6,11-15.8,23-23.8,34.4c-7.7,11-11.6,11.3-21,1.6c-1.6-1.7-3-3.6-4.6-5.3c-5.8-6-10.4-6.2-16,0.1
		c-5.8,6.4-11.8,12.6-16.8,19.7c-3.7,5.2-9,8.4-14,12C883.3,1082,880.7,1082,878,1082z"/>
	<path class="st0" d="M290,1082c-62.7,0-125.3,0-188,0c-1-1-2.1-2-2.8-3.3c7.9-11.7,16.4-22.9,25.3-33.9c7.3-9,6.5-13.4-4.1-18.5
		c-15.3-7.5-29-17.5-44.1-25.4c-4.9-2.6-8.8-6.2-11.2-11.4c1.1-5.2,5.2-7.5,9.4-9.6c44.1-21.8,87.2-45.5,131.4-66.8
		c3.9-1.9,7.7-3.8,12.2-2.6c1.1,0,2.1,0.1,3.2,0.3c23.1,51.9,45.8,103.9,68.4,156C291.9,1071.5,296.6,1076.9,290,1082z"/>
	<path class="st10" d="M886,1082c7.9-16.1,20.8-28.2,32.6-41.2c5.2-5.7,10.3-4,15.1,1.6c14.7,17,14.7,16.8,27.4-2
		c6.5-9.6,13.4-19,20-28.6c4.1-5.9,9.2-8.6,16.1-4.8c6.3,3.4,10.8,0.3,14.9-4.2c15.5-17.3,31.8-34,48.3-50.3
		c5.4-5.3,12.8-8.7,15.5-16.5c33.3,5.3,66.5,10.5,100,14c1.2-2.1,2.1-4.6,5.2-4.6c1.9,0.1,3.3,1.3,4.9,2.2c1.6,1.1,1.8,2.7,1.8,4.4
		c-2.1,5.4-3.7,10.8-3.3,16.8c0.3,4.7-3.1,8-6.6,10.6c-30.7,23.5-58.4,50.3-85.4,78c-5.3,5.4-10.4,8.7-18.3,4.6
		c-6.5-3.3-11.6,0.4-15.4,5.6c-4.6,6.2-9.7,11.5-17,14.3C990,1082,938,1082,886,1082z"/>
	<path class="st11" d="M1880,1082c-95.3,0-190.7,0-286,0c-15.6-6.4-26.2-19.2-38.2-30.1c-7.8-7.1-15.2-14.7-22.4-22.5
		c-2.8-3-5.7-6-1.4-10c3.3-4.3,8.3-5.2,13.1-6.6c43.5-12.8,87.9-20.8,133-25c5.2-0.5,11.6,3.5,15.5-3.3c3.6-1.2,6.5,0.9,9.4,2.3
		c56.9,28.2,113.7,56.5,170.4,85.2c2.4,1.2,4.7,2.5,6.9,4.1C1883,1078.1,1881.2,1080.1,1880,1082z"/>
	<path class="st10" d="M290,1082c-18.7-43.4-37.4-86.8-56.1-130.2c-5.4-12.5-10.6-25.1-15.9-37.7c4.7-5.9,9.1-1.1,13,0.8
		c32,15.6,63.6,31.6,95.4,47.5c3.9,1.9,7.8,3.7,11.6,5.8c7.7,4.2,15.1,4.2,22.5-0.7c4.5-3,9.3-5.8,14.3-0.7
		c4.5,6.9-1.6,13.1-1.5,19.7c-0.4,2.4-0.9,4.6,0.8,7.1c17,24.1,29.9,50.6,45,75.8c2.4,3.9,4.8,8.3,0.8,12.8
		C376.7,1082,333.3,1082,290,1082z"/>
	<path class="st12" d="M1269.9,84.1c39.6,4.8,79.2,9.6,118.7,14.3c3.1,0.4,7.4,2.8,9.1-0.7c1.7-3.4-2.7-5.6-4.9-7.8
		c-25.5-25.7-51.2-51.3-76.8-76.9c-3.5-3.5-6.7-7.3-10.1-11c37.3,0,74.7,0,112,0c4,2.6,3.7,6.6,3.1,10.6c-3,22.2-4.7,44.5-10.4,66.3
		c-0.5,1.8,0.3,3.2,0.7,4.8c1.2,6.1-3.9,10.9-3.3,16.9c0.2,1.9-0.2,3.6-0.4,5.5c1.7,9.7,1.2,19.6,1.2,29.4c0,31.9,0,63.8,0,95.7
		c0,5.7-0.1,11.3-1.8,16.7c-0.1,1.2-0.5,2.3-1.2,3.2c-3.6,2.4-5.1-0.5-7.2-2.6c-20.8-20.7-37.8-44.5-56.7-66.8
		c-21.2-25.1-42-50.7-62.7-76.2C1274.6,99.3,1267.6,93.6,1269.9,84.1z"/>
	<path class="st0" d="M2,752c25.3-6,50.7-12,76-18c2.5,2.4,4.1,4.8,3.9,8.7c-2.7,53.7-5.4,107.5-8.3,161.2c-1,19.6-3,39.1-2.7,58.8
		c0.2,9.2-1.5,18.1-4.9,26.7c-2.3,6.5-6,2-8.1,0.4c-10.7-8.5-18.8-19.5-27.7-29.7c-6.7-7.7-13.2-15.7-19.9-23.4
		c-4.4-5-5.3-11.2-8.3-16.7C2,864,2,808,2,752z"/>
	<path class="st13" d="M696,1026.3c1.3,1.2,2.6,2.4,3.9,3.6c-0.2,16.5-8.6,30.2-14.9,44.6c-1.8,4-5.8,5.2-9,7.5
		c-57.3,0-114.7,0-172,0c-10.1-4.3-12.2-12.3-10.9-22.3c2.2-17.8,4-35.7,6.1-53.5c0.4-3.6,1.5-6.9,5-8.9c5.3-2.9,10.9-2.5,16.6-1.7
		c49.5,7.1,98.9,14.7,148.4,21.7C678.6,1018.7,687.6,1021.7,696,1026.3z"/>
	<path class="st10" d="M1406,84c4-27.3,8-54.7,12-82c31.3,0,62.7,0,94,0c20.4,15.5,42.4,28.6,63.7,42.8
		c30.7,20.5,62.4,39.5,92.3,61.2c5.1,6.9,8.4,14.3,5.8,23.1c-2,6.6-6.2,6.5-11.4,3.7c-15.2-8.2-30.6-15.9-45.2-25.2
		c-1.2-0.8-2.4-0.7-3.6-1.1c-1.1,0-2.1-0.2-3.2-0.6c-1.7-6.7-8-8.4-12.5-12.1c-11.1-9-22.7-17.6-33.3-27.1
		c-9.3-8.4-19.2-10.4-31.3-8c-38.6,7.5-76.9,16.3-114.7,27.1C1414.2,87,1409.6,89.2,1406,84z"/>
	<path class="st14" d="M2,164c18.9,19.8,34.3,42.4,51.6,63.6c22.3,27.3,44.3,55,66.5,82.5c1.3,0.7,1.3,1.3,0,1.9
		c-2.1,1-4.1,2.6-6.2,3C83,319.5,52.5,327,21.2,327.6c-6.9,0.1-13,2.3-19.2,4.4c0-5.3,0-10.7,0-16c6.4-6,0-12,0-18
		C2,253.3,2,208.7,2,164z"/>
	<path class="st8" d="M838,2c0,29.1,0,58.1,0,87.2c0,5.3,0.3,10.7-4,14.8c-45.7-25.8-91.5-51.4-137.1-77.4
		C683.1,18.7,668.6,11.9,656,2C716.7,2,777.3,2,838,2z"/>
	<path class="st3" d="M506,1000.1c-3.8,21.6-5.4,43.4-7.6,65.2c-0.7,6.3,3.3,11.3,5.6,16.8c-28,0-56,0-84,0
		c-15.2-26.8-30.5-53.6-45.7-80.5c-2.4-4.3-4.2-9-6.3-13.5c2.6-2.8,5.5-4,9.7-3.8c37.3,2.4,74.6,5.1,111.9,8.4
		c5.2,0.5,10.2,1.6,15.3,2.8C506.7,996.6,507.4,998.1,506,1000.1z"/>
	<path class="st14" d="M1533.9,1022c14,16.2,30,30.5,45.8,44.9c5.1,4.6,9.5,10,14.2,15.1c-20.7,0-41.3,0-62,0
		c-19.2-26-41.2-49.7-61.9-74.6c-34.7-41.8-69.9-83-105-124.5c-2.1-2.5-4.7-4.7-7.1-7c-7.5-0.7-11.2-6.7-15.4-11.6
		c-18.1-21.1-35.8-42.5-53.8-63.7c-2.6-3.1-5-6.4-1.3-10.3c4.2-3.2,7,0.7,9.4,2.5c11.1,8.1,20.9,17.9,30.7,27.4
		c21.8,20.9,43.9,41.5,66,62.1c0.4,3.3,2.7,4.7,5.2,6.7c23.3,19.4,43.7,42.1,66.8,61.7c20.1,21.8,43,40.5,63.8,61.6
		C1532.3,1015.3,1534.9,1017.7,1533.9,1022z"/>
	<path class="st15" d="M1042,1082c5.5-7.5,11-15,16.4-22.5c4.4-6.1,9.8-7.9,16.3-3.9c6.4,4,11,1.9,15.7-3c26.1-27,52.9-53.2,82.8-76
		c7.7-5.9,6.3-14.9,8.7-22.6c8.4-1.9,15.2,4.1,16,14c5.9,11.7,17.9,18.5,24,30c1,4.6-2.1,6.9-5.2,9c-10.1,6.9-19.7,14.5-29.6,21.7
		c-7.4,5.4-11.5,12.3-12.3,21.6c-0.6,6.9-1.4,13.8-2.8,20.6c-0.8,4.3-2.4,8.2-6.1,11C1124.7,1082,1083.3,1082,1042,1082z"/>
	<path class="st1" d="M98,114C66,102,34,90,2,78C2,54.3,2.1,30.7,1.9,7c0-4.3,0.8-5.2,5.1-5.1C33.3,2.1,59.7,2,86,2
		c3.1,2.8,4.6,6.2,5.2,10.5c4.4,28.4,6.2,57,5.8,85.8c0,1.4,0.2,2.6,1,3.7C98,106,98,110,98,114z"/>
	<path class="st3" d="M102,1078c0,1.3,0,2.7,0,4c-31.3,0-62.7-0.1-94,0.1c-5,0-6.2-1.1-6.1-6.1c0.3-26.7,0.1-53.3,0.1-80
		c2.8-5.8,7.6-7.3,13.6-7c9.4,0.5,18.6-1.8,27.9-2c18.7-0.3,26.4,4.5,33.8,21.6c8.2,18.9,16.5,37.9,24.5,56.9
		C103.5,1069.7,105.3,1073.8,102,1078z"/>
	<path class="st16" d="M1880,1082c-3.4-2-6.7-4.3-10.3-6.1c-54.2-27.2-108.4-54.3-162.6-81.3c-3.6-1.8-7.4-3.1-11.1-4.6
		c-8.4-0.5-16.2-3.2-23.7-6.9c-32.1-16-64.1-32.1-96.1-48.1c-6.3-3.1-12.7-5.8-19.5-7.1c-2.6-5.3-7.9-6.8-12.7-9.1
		c-27.8-13.6-55.4-27.6-83.1-41.4c-6.5-3.3-13.1-6.4-20-8.7c-1.6-3.1-3.2-5.3-7.5-6c-5.4-0.8-10.5-3.5-15.5-5.9
		c-29.2-14.4-58.3-28.9-87.2-43.7c-3.8-2-10.5-2.8-7.6-10.3c2.8-7.1,7.8-3.5,11.5-1.8c13.4,5.8,26.8,11.7,40.1,17.8
		c29.3,13.4,58.5,26.9,88,39.8c5.8,2.5,10.2,8.2,17.3,8c57.2,26,114.4,52.1,171.7,77.8c4.9,2.2,8.7,7.6,15.2,5
		c12.9,9.7,28.4,14.2,42.6,21.3c8,4,16.1,7.4,23.6,12.5c4,2.7,8.9,5.7,14.6,3.9c4.3-1.3,6,1.3,7.2,4.7c0.9,2.6,4,3.6,4.9,6.2
		c28.2,19.4,58.7,35.1,87.9,52.9c17.3,10.6,34.8,20.8,52.2,31.1C1893.3,1082,1886.7,1082,1880,1082z"/>
	<path class="st9" d="M1166,1082c1.4-12.8,2.9-25.7,4.3-38.5c0.7-6.3,3.8-11.3,8.7-15.1c14-10.6,27.5-21.9,42.9-30.4
		c17.8,16,32.2,35.1,48.6,52.5c9.6,10.1,18.3,21,27.4,31.5C1254,1082,1210,1082,1166,1082z"/>
	<path class="st1" d="M102,1078c-10.7-24.3-21.7-48.5-31.8-73c-3.9-9.4-9.6-13.9-19.6-12.9c-16.2,1.6-32.5,1.1-48.5,4
		c0-25.3,0-50.7,0-76c18.4,21,36.7,41.9,55.1,62.8c2.2,2.5,4.6,4.8,6.9,7.2c1.3-1.3,2.6-2,4,0c20.8,11.2,40.4,24.6,61.7,34.9
		c10.7,5.2,11.4,8.1,3.6,17.2C122.8,1054.1,115.7,1068.9,102,1078z"/>
	<path class="st17" d="M1260,2c3.5,23.6,4.8,47.5,6.8,71.3c0.2,2,0.6,4.3-1.4,5.4c-2.9,1.5-5-1-7-2.5
		c-24.9-17.7-49.7-35.5-74.5-53.4C1174.5,16.1,1165.3,9,1156,2C1190.7,2,1225.3,2,1260,2z"/>
	<path class="st0" d="M2,484c20.2,16.7,40.4,33.4,60.6,50.1c1.7,1.4,4.2,2.9,3.3,5.6c-1,2.7-3.9,2.2-6.1,2.2
		C40.5,542,21.3,542,2,542C2,522.7,2,503.3,2,484z"/>
	<path class="st2" d="M676,1082c8.9-17,14-35.6,24-52.1c6,17.4,12,34.7,18,52.1C704,1082,690,1082,676,1082z"/>
	<path class="st18" d="M98,102C92.2,68.9,88.3,35.5,86,2c5.3,0,10.7,0,16,0c-3.3,23.7-1.8,47.5-1.9,71.3C100,83,99.3,92.5,98,102z"
		/>
	<path class="st2" d="M2,298c3.7,6.9,6.9,14,8.7,21.8c-4.5,1.3-6-2.6-8.7-3.8C2,310,2,304,2,298z"/>
	<path class="st19" d="M814,248c20.9,33.8,39.1,69.2,58.8,103.7c4.3,7.5,8.7,14.8,13.1,22.3c1-0.1,1.8,0.2,2.5,0.9
		c1.4,5.3-1.8,8.8-5.3,12c-24.9,22.4-48.7,46-73.5,68.6c-13.5,12.3-26,25.7-40,37.4c-2.6,2.1-4.5,4.9-5.6,8.1
		c-0.9,3.2,3.1,8.7-4.1,9.1c-6.4,2.8-7.6,8.8-9.1,14.6c-8.9,34.1-17.8,68.2-26.5,102.3c-2,7.9-5.3,14.8-10.6,21.1
		c-18.2,21.6-35.6,43.8-52,66.9c-2.9,4-6.5,7.5-9.8,11.2c-5.4,4.5-7.6-0.3-10.1-3.6c-13.2-17.6-25.2-36-37.9-54
		c-33-46.8-65.4-94.1-98.6-140.8c-2.2-3.2-3.6-6.3-3.4-10.1c0.9-31.6,5-62.9,7.6-94.4c3.6-42.7,7.5-85.4,11.3-128.1
		c1.6-18.3,3.4-36.6,5.9-54.7c0.2-1.4,0.9-2.4,2.1-3.2c0.9-0.9,2-1.5,3.2-2c10.6-3.8,21.7-2.6,32.4-1.6c12.3,1.1,24.6,1.6,36.9,1.4
		c11.7-0.2,23.3,0.2,34.7,2.9c36.1-2.4,72,1.5,108,2.5c13.7,0.4,27.3,0.1,40.9,0.7C795,241.6,804.8,243.8,814,248z"/>
	<path class="st0" d="M371.9,968c-1.9,0.7-4.2,1-5.5,2.2c-12.1,11.4-23.3,6.8-36,0.2c-37.2-19.4-74.9-37.7-112.4-56.4
		c0,0,0-0.1,0-0.1c-3.9-2.6-4.8-6.4-4.9-10.8c-0.1-10-1-20.1,0.2-29.9c2.9-22.2,1.8-44.6,3.1-66.8c2-34.5,2.7-69.1,4.6-103.7
		c0.3-5.3,1-10.3,3.6-14.9c7.2-2.4,14.6-3,22.1-2.9c33.9,0.1,67.9-1.2,101.7,0.3c50.9,2.3,101.7,1.1,152.5,1.7c3.6,0,7.3,0,10.6,1.8
		c4.6,6.9-1.3,11.3-4.5,15.5c-11.7,15.3-23,31-34.9,46.2c-12.9,16.5-25.4,33.4-38,50.1c-4.9,6.5-10.4,12.1-18.1,15.3
		c0,0.7,0,1.3,0,2c0.1,0.5,0.1,1.1,0.2,1.6c0.7,9.9-2,19.3-4.6,28.7c-10.5,37.6-20.7,75.2-31.8,112.6
		C378.6,964.7,378.4,969.9,371.9,968z"/>
	<path class="st5" d="M510.1,693.9c-4.4-1.7-9.1-1.9-13.8-1.9c-86.4-0.7-172.9-1.3-259.3-2c-3.7,0-7.3,0-11,0
		c-0.5-0.2-0.9-0.3-1.4-0.5c-2.7-4.2-0.1-7.7,1.6-11.2c17.5-36.2,37.2-71.2,54.6-107.4c2-4.3,5.6-6.5,9.3-8.9c0.7,0,1.3,0,2,0
		c3.1-7.5,10.4-8,16.7-9.2c44.1-8.8,88.2-17.5,132.3-25.9c17.7-3.3,35.2-7.2,52.9-10.4c4.8-0.9,9-0.9,12,3.5c24,34,48,67.9,71.9,102
		c21.8,31.1,43.4,62.3,65.1,93.3c2.7,3.8,5.9,7.2,8.9,10.7c6,12.5,15.2,22.9,22.7,34.4c3.2,4.8,8,8.9,7.4,15.6
		c-11.5-0.2-21.3-5.6-31.3-10.3c-43.6-20.6-87.4-40.9-130.8-61.9C515.8,701.7,510.3,700.3,510.1,693.9z"/>
	<path class="st20" d="M760,510c-0.7-4-1.3-8-2-12c5.6-4.1,11.3-2.9,17.2-0.7c45.6,16.5,91.3,32.9,137,49.1
		c16.3,5.8,32.6,11.6,48.8,17.5c4,1.4,8.5,2.3,9.8,7.4c0.3,2.1,0.2,4.2,0.3,6.3c-0.1,3.5,1,7.4-3.7,9.3c-1.4,0.6-1.8,2.3-2.4,3.9
		c-31.3,82.4-68.7,162.3-102.3,243.7c-6.1,14.8-12.7,29.4-18.8,44.1c-3.3,8.1-7.5,15.4-13.8,21.4c-6.5-14.5-7.1-30.4-9.8-45.7
		c-19.7-112.1-39.1-224.3-58.6-336.4C761.2,515.2,760.5,512.6,760,510z"/>
	<path class="st9" d="M967.9,578.1c0.1-2,0.1-4,0.2-6c0.5-1.1,1.3-1.8,2.5-1.9c2.2,0.5,3.7,2.3,5.7,3.1
		c29.2,56.4,61.9,110.9,92.6,166.5c31.4,56.8,63.7,113.2,95.3,169.9c3.4,6.1,5.3,12.9,8.7,19c1.7,3.1,3,6.7,6.5,8.2
		c4.7,2,3.9,5.5,3,9.1c-0.7,0.8-1.4,1.5-2.3,2c-1.3,0.7-2.7,1.3-4,2c-17.9-10.7-37.4-18-55.8-27.5c-4.1-2.1-8.1-4.3-12.2-6.4
		c-14.4-12-31.7-19.7-46.9-30.7c-30.1-22-62.9-39.9-95-58.8c-3.6-2.1-10-1.3-9-8.4c2.2-55.2,2.6-110.5,4.5-165.7
		c0.8-22.9-1.3-46.2,4.5-68.8C966.6,581.8,966.9,579.8,967.9,578.1z"/>
	<path class="st8" d="M967.9,578.1c1.4,46.9-1.3,93.7-2.7,140.5c-1,33.8,1,67.8-3.1,101.5c6.8,11.7,6.8,21-0.1,27.9
		c-44,17.3-88,34.6-132,52c8.6-26.7,21.1-51.7,32-77.4c32.6-76.9,65.5-153.7,98.5-230.4C962.5,587.2,965.4,582.7,967.9,578.1z"/>
	<path class="st18" d="M506,1000.1c-0.7-0.7-1.3-1.4-2-2.1c-5.8-3.4-9.2-8.5-12.1-14.4c-24-48.1-48.1-96.2-72.1-144.3
		c-3.4-6.8-5.8-13.6-3.8-21.2c0,0,0-0.1,0-0.1c89.3,66,178.6,132,267.9,198c4.3,3.1,8.1,6.9,12.1,10.3
		c-49.2-7.1-98.4-14.2-147.6-21.1C534.3,1003.2,520.3,1000.1,506,1000.1z"/>
	<path class="st15" d="M510.1,693.9c23.9,11,47.8,22,71.5,33.2c30.7,14.5,61.3,29.1,92,43.8c3,1.4,5.7,3.4,8.5,5.1
		c-27.6,6.4-55.7,9.2-83.6,13.5c-55.2,8.6-110.4,16.7-165.7,25c-5.6,0.8-11.2,1.1-16.9,1.6c29.5-38.8,58.9-77.7,88.5-116.5
		C506.1,697.4,508.2,695.8,510.1,693.9z"/>
	<path class="st21" d="M962,848c0-9.3,0.1-18.6,0.1-27.9c49.9,24.2,95.6,55,139.9,88.1c2.7,2,4.7,4.7,5.9,7.9
		c-22.3-10.2-44.7-20.2-66.9-30.6C1014.7,873.1,988.4,860.5,962,848z"/>
	<path class="st8" d="M969.9,572.1c-0.6,0-1.2,0-1.9,0c-66.2-23.7-132.3-47.5-198.5-71.1c-3.7-1.3-7.7-2-11.6-3
		c15.5-17.3,33.5-32.1,50.2-48.1c25.8-24.7,51.8-49.3,77.8-73.9c5.4-6.2,11.3-2.6,17.1-1c29.1,7,58.5,13.1,87.3,21.4
		c28.7,6.2,57.4,12.3,85.6,20.8c29.3,5.1,57.9,13.7,86.9,20.2c8.3,1.9,15.8,6.3,23.1,10.7c0,0.7,0,1.3,0,2
		c-9,13.6-24.1,18.6-37.2,26.1c-53.4,30.6-106.9,61-160.5,91.2C982.7,570.5,977.1,574.8,969.9,572.1z"/>
	<path class="st14" d="M1188,450c4.5-14.2,14.4-25.2,22.1-37.5c17-27.3,34.7-54.1,52.1-81.1c2-3.1,4.3-5.9,7.8-7.4
		c0.7-0.7,1.5-1.3,2.4-1.7c16.4,10.7,33.2,20.8,47.1,34.8c74.3,54.8,146.1,113.1,219.4,169.1c5.6,4.2,11.9,8.1,13.4,16
		c-0.6,1-1.3,1.7-2.2,2.3c-3.1,0.8-6,2.7-9.3,2.6c-40.5-0.6-81.1,0.8-121.6-0.8c-3.1,1.6-5.9,1.3-9.3-0.2
		c-60-25.3-120.4-49.7-180.6-74.3c-5.6-2.3-11.2-4.7-16.4-7.7c-4.8-2.8-8.8-6.2-14.8-3.1c-2,1.1-3.5-1.2-4.8-2.7
		C1191.7,455.4,1189.5,452.9,1188,450z"/>
	<path class="st22" d="M1278,780c-5.1-27.8-14.6-54.4-21.7-81.6c-5-19.6-10.9-38.9-16.3-58.4c2.7-4.2,5.7-7.9,10.5-10.1
		c31.3-14.3,62.4-29,94.9-40.7c4.7-1.7,10.4-0.7,14.2-5c4.4-2.1,6.9,1.7,9.5,3.7c41.4,32.7,82.7,65.7,123.7,98.9
		c2,1.7,3.8,3.6,5.6,5.6c3.4,3.7,5.9,8.4,12.4,6.8c2.1-0.5,3.1,2.1,4,3.9c0.8,1.5,1.1,2.9,0.2,4.5c-1.7,6.7-6.5,9.6-12.9,11.6
		c-63.4,19.3-126.8,38.5-190,58.3c-9.7,3-20.6,1.7-29.3,8.1c-2.6,0-3.9-1.6-4.8-3.8C1277.9,781.1,1278,780.6,1278,780z"/>
	<path class="st19" d="M1272,324c-0.7,0-1.4,0-2,0c0-0.7,0-1.4,0-2c-2-6.8,3.8-8.3,7.7-10.5c23.8-14,48.2-27,72.5-40.3
		c13.1-7.2,26-14.9,39.4-21.6c4-2,8.1-4,12.6-1.5c0.6,0,1.2,0,1.9,0c4.6-5.3,10.9-6.6,17.4-6.9c37.9-1.5,75.8-3.5,113.7-5.8
		c1.7-0.1,3.3,0.1,4.9,0.5c5.8,6.2,7.2,14.2,8.9,22.1c5.6,27.1,11.9,54,18.2,80.9c3,12.8,9.2,22.6,20.2,29.6
		c6.9,4.4,13.6,9.2,19.3,15.2c2.3,2.4,5.5,4.2,3,8.3c-6.1,3.6-12.3,1.2-18.3,0.1c-70.1-13.5-140.1-27.4-210.1-41.5
		c-6.8-1.4-13.7-2.7-20.7-2.3c-18.2-8.5-38.5-8-57.5-12.8C1292.1,332.6,1281.6,329.7,1272,324z"/>
	<path class="st2" d="M969.9,572.1c52.8-30.1,105.6-60.3,158.5-90.3c19.1-10.8,37.7-22.5,57.5-31.8c-22,75-44,150-66,225
		c-1.9,6.4-4,12.7-6,19c-0.1,0.5-0.3,0.9-0.4,1.4c-3.8,3-6.1-0.2-8.6-2.2c-39.4-32.6-78.7-65.3-117.4-98.7
		c-6-5.2-10.9-11.9-15.6-18.4C971.3,574.7,970.6,573.4,969.9,572.1z"/>
	<path class="st3" d="M1110,164c16.8-10.8,34.8-19.4,52.6-28.3c30.3-15.2,60.6-30.3,90.9-45.4c4.7-2.4,9.8-4.2,14.6-6.2
		c3.5,7.4,4.9,15.1,4.9,23.4c-0.1,64.9-0.1,129.8,0,194.7c0,7.1-0.2,14-5,19.8c-28.8-28.5-57.7-57-86.5-85.5
		c-3.3-3.3-6.7-6.5-9.9-9.9c-6.8-7.2-14.3-7.7-22.5-2.7c-2,1.2-4,2.4-6,3.5c-8.8,4.7-11.7,3.7-14.5-5.7c-2.4-7.9-4.9-15.9-6.5-24
		C1119.6,185.9,1114.1,175.2,1110,164z"/>
	<path class="st21" d="M1180,948c0-0.7,0-1.4-0.1-2.1c-7.6-15.8-13.8-32.1-18.2-49.1c-16.5-64-33.7-127.8-50-191.8
		c-1-3.8-3.9-8.4,2.3-10.9c0,0,0-0.1,0-0.1c51.9,27.5,103.9,55,155.8,82.5c2.6,1.4,5.4,2.4,8.2,3.6c0,0,0,0,0,0
		c3.9,4.3,3.6,8.5,0.8,13.5c-28.3,49.8-57.2,99.3-85.7,149c-2,3.5-2.7,12-11,7.5C1181.3,949.4,1180.7,948.7,1180,948z"/>
	<path class="st23" d="M1268,322c0-79.3,0.1-158.6,0.1-237.9c0.6,0,1.2,0,1.7,0c16.4,23.1,35.4,44.1,53.3,66
		c24.8,30.5,49.9,60.7,74.8,91.1c1.7,2,2.8,4.5,4.2,6.8c-35.4,19.7-70.8,39.3-106.2,59.1c-8.7,4.8-17.3,9.9-25.9,14.9
		C1269.3,322,1268.7,322,1268,322z"/>
	<path class="st10" d="M902,379.9c-5.3-1.3-10.7-2.6-16-3.9c0-0.7,0-1.4-0.1-2c-15.3-84-30.5-168.1-45.8-252.1
		c-0.8-4.6-1.4-9.2-2.1-13.8c43,37.6,82.1,79.1,122,119.9c2.6,4.5,0.7,8.8-1.1,12.8c-19.4,42.6-35.4,86.6-49.5,131.2
		C908.1,376.2,904.7,377.5,902,379.9z"/>
	<path class="st0" d="M1360,588c-18.5,10.1-38.9,15.5-58,24.3c-20.5,9.5-41.3,18.5-62,27.7c-16.1-57.9-32.1-115.7-48.1-173.6
		c-1.5-5.4-2.6-11-3.9-16.5c2,1.3,4,2.7,6,4c10.1,3.3,19,9,27.2,15.5c45.3,36.1,90.7,72,135.5,108.6
		C1359.7,580.5,1365.3,582.6,1360,588z"/>
	<path class="st15" d="M902,379.9c13.9-50.2,32.7-98.6,54.3-146c1-2.1,2.5-3.9,3.7-5.9c2.5,1.6,5.5,2.8,7.5,4.8
		c20.9,21,41.7,42.1,62.5,63.2c2,4.6,1.3,9-0.6,13.4c-11.4,26.8-21.5,54.1-30.7,81.7c-1.4,4.4-3.1,8.7-8.8,9
		C960.2,395.3,931.3,386.7,902,379.9z"/>
	<path class="st9" d="M990,400.1c12.2-35.1,23.8-70.5,40-104.1c21.7,21.7,45.4,41.2,66,64c3,4.7,2.8,9.5,0.7,14.6
		c-4.8,11.6-9.2,23.4-13.4,35.2c-1.8,5.2-4.7,9.2-9.3,12c-23.9-5.9-47.8-11.8-71.7-17.8C998.1,403,994.1,401.4,990,400.1z"/>
	<path class="st11" d="M1074,421.9c5.7-21.2,15.5-41,22-61.9c30,29.4,60,58.7,90,88.1C1148.7,439.3,1111.4,430.6,1074,421.9z"/>
	<path class="st0" d="M506,520c-36.8,7-73.7,13.9-110.5,21.2C361,547.9,326.5,555,292,562c0-0.7,0-1.3,0-2c-1.9-5.2-0.6-10,1.6-14.8
		c19.2-40.9,38.7-81.7,58.2-122.4c6.2-12.9,11.6-26.1,18.3-38.7c2.2-4.1,4.8-7.4,9.8-8c0-0.7,0.1-1.5,0.1-2.2
		c10.1-19.3,28.5-30.6,43.6-44.9c19.7-18.7,39.9-36.9,60.2-54.9c12.1-10.8,23.5-22.5,36.3-32.5c3.1-2.4,6.1-5.2,10.2-5.8
		c0.9,0.5,1.5,1.2,1.6,2.3c-2.6,27.1-5.4,54.2-7.9,81.4c-5.2,57.6-10.3,115.2-15.4,172.9C507.9,501.5,506.9,510.7,506,520z"/>
	<path class="st20" d="M226,690c-1.9,45.4-4,90.9-5.7,136.3c-1.1,29.2-1.6,58.4-2.3,87.6c-24.3,10-47.2,22.8-70.7,34.5
		c-23.5,11.6-46.7,23.9-70,35.9c-3.2,1.7-6.3,3.7-9.4,5.6c-1.3,0-2.6,0-4,0c2.5-46.2,5.1-92.3,7.5-138.5c1.6-30.9,3.1-61.8,4.4-92.7
		c0.3-8.3,0.5-16.6,2.1-24.8c46-14,92-28,138-42C218.9,689.4,221,682.1,226,690C226,690,226,690,226,690z"/>
	<path class="st14" d="M226,690c-3.3,0.7-6.7,1.3-10,2c-0.2-7.4-4.9-12.1-9.8-16.7c-17.3-16.1-34.8-31.9-51.9-48.2
		c-23.6-22.5-46.9-45.4-70.3-68.1c-1.9-1.9-3.8-3.8-5.4-5.9c-1.9-2.6-5.1-5.4-2.8-8.8c1.9-2.9,5.5-1.2,8.4-0.9
		c65,5.6,130,11.2,195,16.9c3.6,0.3,7.2,1.2,10.8,1.8c-10,24.2-22.8,47.1-34.4,70.6C246,651.9,235.9,670.9,226,690z"/>
	<path class="st9" d="M120,312c0-0.6,0-1.3,0-1.9c69.8,17.6,139.5,35.2,209.3,52.8c4.8,1.2,9.7,2.2,14.6,3.3
		c2.8,5.1-0.5,8.3-3.5,11.6C327.9,391.5,313,402.6,300,416c-18.2,18.8-35.7,38.3-52.9,58c-3,3.4-5.4,8.2-11.2,4
		c-16.7-19.6-29.6-41.8-44.3-62.8c-22-31.3-43.2-63.2-64.8-94.8C124.9,317.5,122.3,314.8,120,312z"/>
	<path class="st11" d="M236,478c24.1-26.2,47.1-53.4,72.9-77.9c11.8-11.2,25-21,35.1-34c11.2,3.3,22.4,6.6,34,8c0.7,0.7,1.3,1.3,2,2
		c-29.3,61.3-58.6,122.6-88,183.9C271.6,533.8,253.3,506.3,236,478z"/>
	<path class="st24" d="M530,238c-18,16.8-35.9,33.7-54,50.3c-27.2,24.9-54.6,49.7-81.9,74.6c-4.4,4-8.5,8.5-14.1,11
		c-8.5-90-17.1-179.9-25.5-269.9c-0.6-5.9-0.3-12-0.4-17.9c47.3-1.3,94.5,3.1,141.9,2.1c5.3,3.7,2.6,7-0.5,10.4
		c-12.1,13.6-24.9,26.7-36.6,40.7c-1.7,2-3.6,3.9-5.2,6c-7.4,9.6-7.1,13.1,2,20.8c22.6,19,44.9,38.3,67.3,57.7
		C527.1,227.4,532.2,231.1,530,238z"/>
	<path class="st22" d="M1908,262c-7.2,26.4-18.4,51.4-27.6,77.1c-16.7,46.4-34.2,92.5-51.5,138.6c-0.8,2.2-1.9,4.2-2.9,6.3
		c-0.7,0.7-1.6,1.3-2.5,1.8c-1,0-2-0.3-2.9-0.7c-1.8-0.7-5.1-0.8-5.1-2.4c-0.1-9.3-8.2-11.9-13.6-16.4c-9.1-7.8-17.9-15.9-26.3-24.5
		c-40.8-41.6-83.5-81.2-124.9-122.2c-19.6-19.4-39.6-38.5-59.3-57.8c-6.9-6.8-12.3-15-19.9-21.1c-0.4-1.7-0.1-3.3,1.1-4.6
		c1-0.7,2.1-1.1,3.3-1c20.5-1.3,40.7,1.5,61.1,2.8c34.8,2.3,69.7,5,104.5,7.3c31.8,2.2,63.7,4.3,95.5,7c9.9,0.8,20,1.6,29.9,1.8
		c13.4,0.4,25.9,4.9,39,6.2C1906.6,260.7,1907.3,261.3,1908,262z"/>
	<path class="st20" d="M1905.9,260c-14.3,3.6-28.4-0.1-42.6-1c-43.5-2.6-86.9-5.9-130.3-9c-42.1-3-84.2-5.9-126.3-9.3
		c-10.2-0.8-20.7,0.3-30.7-2.9c-4.7-3.5-3.8-8.4-2.5-12.8c11.3-38.2,22.3-76.4,34.1-114.5c1.3-4.2,4.1-7.1,8.4-8.4
		c18.5,8.4,35.2,20.3,54,28c3.6-2.3,6.8-0.8,10.1,1c42,22.8,84.2,45.1,125.4,69.4c25.6,15.1,51,30.5,76.5,45.7
		C1888.7,252.9,1897.9,255.4,1905.9,260z"/>
	<path class="st15" d="M1882,246.1c-28.2-12.3-54.1-28.7-81.1-43.1c-39.4-21-78.4-42.8-117.5-64.4c-4.6-2.6-9-5.7-13.4-8.6
		c-0.7-8-1.3-16-2-24.1c18.2,9.1,34.3,21.6,51.3,32.5c50.6,32.4,100.8,65.5,151,98.5C1874.4,239.7,1878.1,243.1,1882,246.1z"/>
	<path class="st22" d="M1512,708c-0.7-0.7-1.4-1.4-2-2c-20.4-21.4-32.6-48.2-47.7-73c-15.7-25.8-30.7-52.1-46.1-78.2
		c-2.4-4.1-6.4-8.4-0.2-12.8c44.7,0,89.3,0,134,0c0.5,0.1,1.1,0.3,1.6,0.4c2.8,4.7,1.7,9.6,0.7,14.3c-4.6,22.5-9.8,44.9-14.8,67.3
		c-0.5,2.3-1,4.5-1.5,6.8c-3.5,17.3-0.1,21.3,17.6,19.7c42.1-3.8,84.3-5.8,126.5-5.6c6,0,12.3-0.9,17.7,2.3
		c4.9,2.9,6.6-3.3,10.4-2.9c26.8,17.8,54.9,33.7,78.8,55.7c2.8,2.6,7.1,0.1,9.4,3.6c-0.2,2.2,1.8,4,1.5,6.3c0,0.6,0,1.3,0,1.9
		c-94,0.5-187.9-3.5-281.9-1.9c-0.5,0.8-1.2,1.3-2.1,1.3C1512.3,710.8,1512.8,709.1,1512,708z"/>
	<path class="st4" d="M1798,710c-1.3-0.7-2.7-1.3-4-2c-15.6-16.5-24.2-37.1-33.2-57.5c-13.9-31.7-28.2-63.2-42.1-94.9
		c-2.2-5-3.4-9.8-2-15.1c7.2-7.1,16.8-10.2,25.3-15.1c20.4-11.9,41.2-23.1,61.7-34.9c6.2-3.6,12.6-6.8,20.1-6.5c0.7,0,1.4,0,2.1,0.1
		c-4.9,42-9.8,84-14.8,126c-3.6,29.8-7.3,59.5-11,89.2C1799.8,702.9,1798.7,706.4,1798,710z"/>
	<path class="st25" d="M834,105.9c1.5,3.8,2,7.7,1.3,11.7c-6.4,40.6-12.9,81.1-19.3,121.7c-0.4,2.3-1.3,4.5-1.9,6.7
		c-10,0.7-18.6-3.4-26.9-8.2c-40.4-23.2-80.6-46.7-121.2-69.7c-35.9-21.1-72.1-41.7-108.1-62.5c-6.3-3.6-13.1-6.6-17.3-13.1
		c0.2-1,0.7-1.8,1.4-2.5c32.6,1.8,65.1,3.7,97.7,5.4c31.2,1.6,62.5,2.9,93.8,4.6C766.9,101.8,800.5,103.9,834,105.9z"/>
	<path class="st26" d="M541.9,90.1c0.1,0.6,0.1,1.3,0.1,1.9c5.1,10.2,3.2,21.1,2.4,31.6c-1.9,27.5-3.9,55-5.4,82.6
		c-0.4,8-2,15.8-2.3,23.7c-0.1,3.7-2.4,5.9-4.8,8.1c0,0,0,0,0,0c-0.7,0-1.3,0-2,0c-15.8-16.8-34.4-30.3-51.5-45.5
		c-10.2-9.1-20.7-17.7-31.3-26.4c-7.2-5.9-8.8-11.5-1.8-19.1c14.4-15.7,28.2-31.9,42.3-47.8c3.1-3.5,6.5-6.7,8.2-11.2
		C511.2,91,526.6,89.6,541.9,90.1z"/>
	<path class="st25" d="M1182,950.1c24.2-41.7,48.6-83.3,72.5-125.2c8.3-14.7,18.8-28.3,23.5-44.9c1.3,0.7,2.7,1.3,4.1,2
		c2.8-1.9,4.9-0.7,6.8,1.4c0.9,2.8,4.1,5.2,1.2,8.5c11.3,16.8,25.3,31.4,38,47.1c10,12.3,21.4,23.6,30,37
		c-28.7,16.3-58.1,31.3-85.8,49.3c-18.5,12-36.4,24.6-53.9,38.1c-6.2,4.8-12.6,7.2-20.4,4.7c-5.3-4.7-10.7-9.3-16-14
		C1182,952.7,1182,951.4,1182,950.1z"/>
	<path class="st20" d="M1514,710c0.7,0,1.4,0,2,0c17.9,15,38.5,26.1,57.9,38.8c50.5,33.3,101.3,66.1,152,99.1c0,0,0.1,0.1,0.1,0.1
		c-2.4,5.6-7.5,5.1-11.9,4.7c-48.5-3.7-97.3-4.3-145.7-8.9c-4.5-0.4-8.1,5.2-12.6,1.1c-1-0.7-2-1.4-2.9-2.2c-16-39.9-28-81.1-41-122
		C1510.6,716.9,1510,712.9,1514,710z"/>
	<path class="st1" d="M1556,838c15.7,3.8,31.8,2.1,47.7,3.3c40.7,3.1,81.6,4.6,122.4,6.7c11.3,50,22.6,99.9,33.8,149.9
		c-2-0.7-4-1.3-5.9-2c-30.2-17.6-57.4-39.5-84.7-61.3c-5.3-4.2-8.5-11.7-16.9-11.5c-17.9-18-39.1-31.9-58.7-47.7
		c-11.6-9.4-23.5-18.5-35.1-27.8C1555.8,845.5,1549.8,843.1,1556,838z"/>
	<path class="st10" d="M668,164c34.7,17.7,67.5,38.6,101.5,57.5c14.8,8.2,28.9,17.8,44.5,24.5c0,0.7,0,1.3-0.1,2
		c-59.3-2-118.7-4-178-6c-4-2.8-4.6-6.4-3-10.9c7.4-20.6,16.1-40.7,25.2-60.6C660.1,166.4,662.5,162.7,668,164z"/>
	<path class="st9" d="M1560,922c29.9,12.8,58.4,28.5,87.5,42.9c16.3,8.1,33.1,15.3,48.5,25.1c-23.7,3.4-47.4,6.6-71,10.2
		c-30.9,4.8-61.4,11.7-91.1,21.8c-6.2-3.9-11.9-8.4-16.8-13.9c-17.3-19.2-38.6-34.3-55.2-54.1c-2.4-5.3,1.4-7.3,5.1-8.8
		c25.2-10.2,51.5-17.3,77.9-23.7C1549.8,920.4,1555,921.8,1560,922z"/>
	<path class="st8" d="M416,818.1c2.3,5.2,4.3,10.5,6.8,15.5c24.8,49.7,49.6,99.3,74.4,148.9c2.5,5,4.5,10.3,6.8,15.5
		c-45.4-2-90.7-5.8-136-10c1.3-6.7,2.6-13.3,3.9-20c12.7-44.7,25.4-89.5,38.1-134.2C411.6,828.4,413.1,822.9,416,818.1z"/>
	<path class="st8" d="M1616,102.1c-13.9,45.1-28,90.1-40,135.8c-0.7,0-1.3,0.1-2,0.1c-0.4,0.9-1.1,1.5-1.9,2
		c-28.1-16.1-51.1-39-76.5-58.6c-25.5-19.7-50.2-40.5-75.4-60.6c-6.2-4.9-11.7-10.2-16-16.8c0-1.3,0-2.7,0-4c4-5.2,9.8-5.1,15.5-5
		c34.9,0.7,69.7-1,104.6,1.6c23.2,1.7,46.5,0.4,69.7,0.4c7.2,0,13.9,1.3,20.1,5C1614.6,102,1615.3,102,1616,102.1z"/>
	<path class="st5" d="M1404,104c4.9,1.3,8.9,4.3,12.8,7.5c49.1,39.6,98.3,79.2,147.4,118.8c2.8,2.3,5.2,5.1,7.7,7.7
		c0.2,2.5-0.5,5.6-2.7,5.8c-10,0.9-20.5,4.6-29.3-3.7c-33.8,2-67.5,4-101.3,6c-11.6,0.7-23.2,1.3-34.8,2C1404,200,1404,152,1404,104
		z"/>
	<path class="st15" d="M1613.9,101.9c-70,1.5-139.9-3.3-209.9-1.9c0.7-5.3,1.3-10.7,2-16c43.2-13.3,87.3-23.2,131.6-31.8
		c10.9-2.1,19.2,0.3,27.2,7.7C1580.7,74.5,1599.4,85.8,1613.9,101.9z"/>
	<path class="st15" d="M1560,922c-21,6.1-42,12.1-63,18.3c-12.1,3.6-24.1,7.3-35.1,13.7c-25.2-21.4-48.3-45.1-72-68
		c-0.9-2.3-1.5-4.9,1.2-6.1c17-7.5,32.8-18.7,52.9-16C1483.3,882,1522,901.4,1560,922z"/>
	<path class="st10" d="M1444,864c-18.1,7.2-36.8,12.7-54,22c-16.2-15.2-32.4-30.4-48.6-45.6c-17.1-16.1-34.3-32.3-51.4-48.4
		c-1.3-2-2.6-3.9-4-5.9c0.9-0.9,1.8-1.7,2.8-2.4c12.3,2.9,23.3,9.2,35.2,13.1c3,1,4.4,4,1.9,7.2c32.1,18.2,65.5,33.8,98.7,49.9
		C1431.2,857,1438.1,859.5,1444,864z"/>
	<path class="st27" d="M1556,838c16.7,15.6,35.6,28.6,53.3,42.9c15.5,12.4,31.1,24.7,46.7,37c5.2,8.9,9.9,18,11.5,28.3
		c0.6,3.9,1.4,7.8-3.5,9.6c-62-28-124-56-186-84c-10.2-15.7-11.4-33-8.7-50.9c2.9-4.6,7.3-4,11.5-3.1c20.5,4.1,41.1,8.2,61.6,12.8
		C1547.7,831.9,1551.5,835.5,1556,838L1556,838z"/>
	<path class="st28" d="M1472,822.1c2,16.6,4,33.2,6,49.9c-47.5-21.7-95-43.4-142.6-65c-3-1.4-6.3-2-9.5-3
		c-11.7-7.9-25-12.6-37.9-17.9c-1.6-5.4,3.5-4.9,5.7-5.2c4.8-0.6,9.8,0.2,14.7,1.2c51.8,10.8,103.7,21.3,155.4,32.4
		C1467.8,815.3,1473.8,814.7,1472,822.1z"/>
	<path class="st26" d="M1664,955.9c-2.7-12.7-5.3-25.3-8-38c30.1,23.4,60.2,46.8,90.2,70.3c2.8,2.2,5.1,5.1,7.7,7.7
		C1724,982.6,1694,969.3,1664,955.9z"/>
	<path class="st7" d="M668,164c-13.2,24.9-24.6,50.6-32,78c-34.7-1.3-69.4-2.7-104.1-4c2.5-38.8,4.7-77.5,7.5-116.3
		c0.7-9.9-0.8-20,2.6-29.7c16.8,6.6,31.7,16.7,47.1,25.7C615.4,133.1,642.6,147.1,668,164z"/>
	<path class="st7" d="M1114,694c22,84,43.9,167.9,65.9,251.9c-13.1-18.1-22.8-38.3-33.7-57.7c-47.6-84.4-95.1-168.9-142.3-253.5
		c-10.9-19.5-22.9-38.3-32-58.7c29.8,22.4,57.3,47.7,86.2,71.2C1077,662.6,1095.4,678.4,1114,694z"/>
	<path class="st29" d="M1362,342c3.6,0.4,7.3,0.6,10.9,1.3c78.4,15.5,156.7,31.1,235.1,46.7c0.9-0.8,1.8-1,2.9-0.6
		c2.1,4.2,1.5,8.4-0.1,12.7c-16.5,43.1-33.2,86.1-50.5,129c-1.8,4.6-2.9,10.6-10.3,9c-20.7-13-39-28.9-58.3-43.8
		c-55.4-42.8-110.5-85.8-165.8-128.8c-2.9-2.2-5.4-5-8-7.5c-3.2-4.8-0.6-7.1,3.6-9C1334.5,345.2,1347.6,341,1362,342z"/>
	<path class="st30" d="M1550,540.1c13.6-27.1,22.6-56.1,34.2-84.1c9-21.8,17.3-44,25.9-66c0.2-0.5,0.3-1,0.5-1.5
		c6.9-2.9,12.2,1.7,17.7,4c45.4,19.2,90.5,38.9,135.7,58.5c20.7,9,42.4,16.2,60,31.2c0,0.6-0.1,1.1-0.1,1.7
		c-18.3,13.2-38.7,22.9-58.3,34c-15,8.5-29.2,18.4-45.6,24c-3.1,3.6-7,5-11.7,5c-46.5-0.2-93,0.3-139.6-0.3
		c-5.3-0.1-10.4-1.8-15.7-2.2c-1.1-0.7-2.1-1.5-3.1-2.5c0,0,0-0.1,0-0.1C1550,541.3,1550,540.7,1550,540.1z"/>
	<path class="st3" d="M1416,542c6.4,15.8,16.4,29.5,24.8,44.2c21.2,36.8,43,73.3,64.5,109.9c1.8,3.1,3.1,6.6,4.6,9.9
		c-27.2-19.2-52.3-41.2-78.6-61.7c-23.9-18.7-47.6-37.5-71.4-56.3c-38-30.7-76-61.3-114-92c-17.3-14-34.6-28-52-42
		c5.7-1.1,10.4,1.7,15.2,3.7c60.9,24.9,121.7,50,182.6,74.9C1399.9,535.9,1408,538.9,1416,542z"/>
	<path class="st25" d="M1362,342c-14.5,6.5-31,8.1-44,18c-16.4-10.6-32-22.3-46-36C1302.1,329.5,1332.3,334.4,1362,342z"/>
	<path class="st1" d="M1472,822.1c-30-6.5-59.9-13-89.9-19.4c-26.4-5.6-52.9-10.9-79.3-16.3c-4.9-1-9.8-2.4-14.8-0.4
		c-0.7,0-1.4,0-2,0c-1.3-1.3-2.7-2.7-4-4c19.8-8.8,40.9-13.6,61.5-20c52.3-16.3,104.7-32.1,157.1-48.1c4.2-1.3,8.2-2.7,11.4-5.8
		c0.7,0.7,1.3,1.3,2,2c13.4,42.9,27,85.7,42,128c-21.4-2.8-42.3-8.2-63.4-12.3C1485.7,824.3,1478.9,823.3,1472,822.1z"/>
	<path class="st4" d="M1610.1,390c-0.7,0-1.4,0-2.1,0c-9.1-8.8-20.4-14.7-30.6-22.1c-6.9-5-11.1-10.9-13.2-19.1
		c-9.1-36-17.5-72.2-24.2-108.8c10.7-0.5,21.5,1.3,32-2c0.7,0,1.3,0,2,0c0.6,0.7,1.3,1.3,1.9,2c5.9,9,9.2,18.8,11.6,29.3
		c8.2,36.3,16.8,72.5,24.9,108.8C1613.3,382.1,1616.5,387.2,1610.1,390L1610.1,390z"/>
	<path class="st26" d="M1610,390c-11.6-50-24-99.7-34.1-150c2.5,2.2,5.2,4.2,7.5,6.5c39.6,38.9,79.1,77.9,118.8,116.7
		c36.9,35.9,74.1,71.5,111.2,107.3c3.8,3.7,7.1,7.9,10.6,11.9C1752.7,451.5,1681.3,420.8,1610,390z"/>
	<path class="st2" d="M1552,542c56,0,112,0,168,0c6.3,21.5,17.2,41.1,25.9,61.7c15,35.2,31.2,69.9,48.1,104.3
		c-24.3-16.4-48.6-32.9-73-49.3c-3.6-2.4-7.3-4.5-11-6.7c-23.6-7.1-41.7-23.7-61.6-36.9c-29.7-19.6-58.7-40.3-88.2-60.1
		C1555.5,551.9,1550.8,548.8,1552,542z"/>
	<path class="st31" d="M1552,542c16.6,13.9,35.4,24.7,53.1,37.2c31.9,22.4,64.3,43.9,96.4,65.9c3,2.1,5.7,4.6,8.5,6.9
		c-56.9-4.9-113.5,0.2-170.1,5.3c-11.5,1-14.2-1.3-11.8-12.8c7-34.2,14.6-68.3,21.9-102.4C1550.6,542.1,1551.3,542,1552,542z"/>
</g>
</svg>
