<svg id="Layer_1" data-name="Layer 1" xmlns="http://www.w3.org/2000/svg" viewBox="0 0 982.69 67.11"><defs><style>.cls-1{fill:#fff;}.cls-2{fill:#c9862a;}.cls-3{fill:#1caa4a;}</style></defs><title>logo-big</title><path class="cls-1" d="M47.78,44.47l-5.13,35.3H35.23L30.13,65l-1-3.59-1.16,3.8L23.06,79.76H15.86l-5.1-35.3h6l3,24,0.63,5.34,1.51-4.68L27,53.26h4.39L36.88,68.9l1.58,4.68,0.53-5,2.74-24.15h6Z" transform="translate(-10.76 -27.42)"/><path class="cls-1" d="M83,79.76H76.92V57.23q0-4.08-1.53-6.1a5.16,5.16,0,0,0-4.38-2,7.7,7.7,0,0,0-2.3.33,8,8,0,0,0-2.23,1.16,19.22,19.22,0,0,0-2.53,2.23q-1.37,1.41-3.16,3.52V79.76H54.67V30.09h6.12V44.47L60.57,50a24,24,0,0,1,2.83-2.9,15.74,15.74,0,0,1,2.78-1.92A11.07,11.07,0,0,1,69,44.15a13.9,13.9,0,0,1,3-.32q5.27,0,8.16,3.22T83,56.74v23Z" transform="translate(-10.76 -27.42)"/><path class="cls-1" d="M106.28,49.53H95.84V44.47h16.63v30.2H123v5.1H94.68v-5.1h11.6V49.53Zm2.14-19.86a4.85,4.85,0,0,1,1.9.37,4.61,4.61,0,0,1,1.53,1,5,5,0,0,1,1,1.53,4.93,4.93,0,0,1,0,3.74,4.93,4.93,0,0,1-1,1.55,4.6,4.6,0,0,1-1.53,1,5.07,5.07,0,0,1-3.8,0,4.59,4.59,0,0,1-1.53-1,4.92,4.92,0,0,1-1-1.55,4.93,4.93,0,0,1,0-3.74,5,5,0,0,1,1-1.53,4.6,4.6,0,0,1,1.53-1A4.85,4.85,0,0,1,108.42,29.67Z" transform="translate(-10.76 -27.42)"/><path class="cls-1" d="M145.86,35.12H135.42v-5h16.63V74.67h10.51v5.1h-28.3v-5.1h11.6V35.12Z" transform="translate(-10.76 -27.42)"/><path class="cls-1" d="M203.24,60.25q0,1.3,0,2.18t-0.11,1.65H178.31q0,5.41,3,8.31t8.72,2.9q1.55,0,3.09-.12t3-.33q1.44-.21,2.76-0.47t2.44-.58v5A42.74,42.74,0,0,1,195.7,80a47.12,47.12,0,0,1-6.52.44,22.18,22.18,0,0,1-7.8-1.23A13.36,13.36,0,0,1,176,75.6a14.69,14.69,0,0,1-3.09-5.73,27.12,27.12,0,0,1-1-7.68,22.8,22.8,0,0,1,1.07-7,17.69,17.69,0,0,1,3.13-5.84,14.83,14.83,0,0,1,11.83-5.47A17.22,17.22,0,0,1,194.48,45a13.13,13.13,0,0,1,4.8,3.29,14,14,0,0,1,3,5.17A21.67,21.67,0,0,1,203.24,60.25Zm-6.36-.88a13.35,13.35,0,0,0-.46-4.31,9.07,9.07,0,0,0-1.74-3.36,8.12,8.12,0,0,0-2.94-2.2,9.85,9.85,0,0,0-4.08-.79,8.52,8.52,0,0,0-3.66.77,8.33,8.33,0,0,0-2.85,2.18A11.26,11.26,0,0,0,179.23,55a15.57,15.57,0,0,0-.91,4.32h18.56Z" transform="translate(-10.76 -27.42)"/><path class="cls-1" d="M273.73,94.53q-16.21-15-16.21-33.19a42.48,42.48,0,0,1,.86-8.49,40.1,40.1,0,0,1,2.78-8.49,46.45,46.45,0,0,1,5.06-8.51,61.77,61.77,0,0,1,7.65-8.44L277.42,31Q263.78,44.5,263.78,60.88a37.24,37.24,0,0,0,3.45,15.68,48.45,48.45,0,0,0,10.2,14.2Z" transform="translate(-10.76 -27.42)"/><path class="cls-2" d="M323.51,35.78a41,41,0,0,0-8.3-1q-8.26,0-8.26,8.65V49.6h15.47v5.1H306.95V79.76h-6.22V54.7H289.37V49.6h11.36V43.76q0-14.1,14.7-14.1a43.52,43.52,0,0,1,8.09.84v5.27Z" transform="translate(-10.76 -27.42)"/><path class="cls-2" d="M354.45,79.76L354.31,75a19.13,19.13,0,0,1-5.85,4.11,15.76,15.76,0,0,1-6.24,1.27,15.28,15.28,0,0,1-5.17-.77,9.68,9.68,0,0,1-3.53-2.13,8.24,8.24,0,0,1-2-3.18,11.76,11.76,0,0,1-.65-4,9.86,9.86,0,0,1,4-8.31q4-3,11.69-3h7.31V55.93a6.55,6.55,0,0,0-2-5q-2-1.88-6.12-1.88a26.18,26.18,0,0,0-5.89.67,41.37,41.37,0,0,0-6,1.9V46.08q1.16-.42,2.58-0.83t3-.72q1.58-.32,3.3-0.51a31.28,31.28,0,0,1,3.48-.19,21.83,21.83,0,0,1,5.77.7,11.7,11.7,0,0,1,4.34,2.14A9.45,9.45,0,0,1,359,50.3a12.78,12.78,0,0,1,.95,5.13V79.76h-5.48ZM353.78,63.7H346a14.92,14.92,0,0,0-3.94.46,7.47,7.47,0,0,0-2.71,1.3,5.22,5.22,0,0,0-1.56,2,6.62,6.62,0,0,0-.51,2.65,6,6,0,0,0,.32,2,4.33,4.33,0,0,0,1,1.65,4.92,4.92,0,0,0,1.83,1.14,7.84,7.84,0,0,0,2.74.42A11.59,11.59,0,0,0,348,74,23.64,23.64,0,0,0,353.78,70V63.7Z" transform="translate(-10.76 -27.42)"/><path class="cls-2" d="M383.38,35.12H372.94v-5h16.63V74.67h10.51v5.1h-28.3v-5.1h11.6V35.12Z" transform="translate(-10.76 -27.42)"/><path class="cls-2" d="M438.89,70.13a8.4,8.4,0,0,1-.63,3.34,8.77,8.77,0,0,1-1.72,2.62A10.72,10.72,0,0,1,434,78a16.84,16.84,0,0,1-3.08,1.34,20.25,20.25,0,0,1-3.36.77,23.85,23.85,0,0,1-3.37.25,63.26,63.26,0,0,1-6.59-.32,44.45,44.45,0,0,1-5.89-1V73.44a49,49,0,0,0,6.15,1.34,41.1,41.1,0,0,0,6.08.46q4.39,0,6.5-1.2a3.74,3.74,0,0,0,2.11-3.41,4.18,4.18,0,0,0-.33-1.71A3.88,3.88,0,0,0,431,67.48a11.59,11.59,0,0,0-2.72-1.42q-1.85-.74-5-1.69a35.78,35.78,0,0,1-4.41-1.6,14.77,14.77,0,0,1-3.5-2.13A9.13,9.13,0,0,1,413,57.76a8.48,8.48,0,0,1-.84-3.9,9,9,0,0,1,.69-3.23,8.78,8.78,0,0,1,2.34-3.27,13,13,0,0,1,4.46-2.51,21.18,21.18,0,0,1,7-1q2.07,0,4.61.23a47.79,47.79,0,0,1,5.27.79V50.3a50.53,50.53,0,0,0-5.47-1,35.62,35.62,0,0,0-4.48-.33,17.91,17.91,0,0,0-3.85.35,8,8,0,0,0-2.53,1,3.77,3.77,0,0,0-1.39,1.44,3.85,3.85,0,0,0-.42,1.78,4,4,0,0,0,.37,1.72,4.12,4.12,0,0,0,1.37,1.49A13.49,13.49,0,0,0,423,58.13q1.79,0.72,4.68,1.56a37.46,37.46,0,0,1,5.27,1.92,13.63,13.63,0,0,1,3.48,2.23,7.2,7.2,0,0,1,1.92,2.78A10,10,0,0,1,438.89,70.13Z" transform="translate(-10.76 -27.42)"/><path class="cls-2" d="M480.34,60.25q0,1.3,0,2.18t-0.11,1.65H455.41q0,5.41,3,8.31t8.72,2.9q1.55,0,3.09-.12t3-.33q1.44-.21,2.76-0.47t2.44-.58v5A42.74,42.74,0,0,1,472.8,80a47.12,47.12,0,0,1-6.52.44,22.18,22.18,0,0,1-7.8-1.23,13.36,13.36,0,0,1-5.36-3.57A14.69,14.69,0,0,1,450,69.87a27.12,27.12,0,0,1-1-7.68,22.8,22.8,0,0,1,1.07-7,17.69,17.69,0,0,1,3.13-5.84A14.83,14.83,0,0,1,465,43.83,17.22,17.22,0,0,1,471.59,45a13.13,13.13,0,0,1,4.8,3.29,14,14,0,0,1,3,5.17A21.67,21.67,0,0,1,480.34,60.25ZM474,59.37a13.35,13.35,0,0,0-.46-4.31,9.07,9.07,0,0,0-1.74-3.36,8.12,8.12,0,0,0-2.94-2.2,9.85,9.85,0,0,0-4.08-.79,8.52,8.52,0,0,0-3.66.77,8.33,8.33,0,0,0-2.85,2.18A11.26,11.26,0,0,0,456.33,55a15.57,15.57,0,0,0-.91,4.32H474Z" transform="translate(-10.76 -27.42)"/><path class="cls-1" d="M497.32,27.42q16.21,15,16.21,33.4a42.21,42.21,0,0,1-.77,7.87A39.16,39.16,0,0,1,510.12,77a47.81,47.81,0,0,1-5,8.67,59,59,0,0,1-7.93,8.82l-3.55-3.62a48.45,48.45,0,0,0,10.23-14.17,36.79,36.79,0,0,0,3.38-15.47q0-16.73-13.61-30.09Z" transform="translate(-10.76 -27.42)"/><path class="cls-1" d="M595.2,94.18h-2.6q-6.79,0-10.09-3.18t-3.3-9.65V69.25a11.21,11.21,0,0,0-.39-3.08,5,5,0,0,0-1.35-2.29,6.31,6.31,0,0,0-2.57-1.42,13.92,13.92,0,0,0-4-.49h-1.51V57.09h1.51a17,17,0,0,0,4.18-.42,5.72,5.72,0,0,0,2.53-1.28,4.52,4.52,0,0,0,1.27-2.2A12.54,12.54,0,0,0,579.2,50V41.69a18.73,18.73,0,0,1,.7-5.33,9.74,9.74,0,0,1,2.3-4,10.42,10.42,0,0,1,4.15-2.57,18.94,18.94,0,0,1,6.24-.9h2.6v4.92h-2.07q-8.16,0-8.16,7.91v8.19q0,8.58-7.42,9.67Q585,60.29,585,69.18v12q0,8.05,8.09,8.05h2.07v4.92Z" transform="translate(-10.76 -27.42)"/><path class="cls-3" d="M643.78,30.09L608.13,87.32h-6.26l35.65-57.23h6.26Z" transform="translate(-10.76 -27.42)"/><path class="cls-3" d="M683.37,30.09L647.72,87.32h-6.26l35.65-57.23h6.26Z" transform="translate(-10.76 -27.42)"/><path class="cls-3" d="M696,80.4q-1.83,0-3.67-.14t-3.57-.35q-1.72-.21-3.22-0.49t-2.58-.6l1.16-6a29.49,29.49,0,0,0,5.68,1.55,42.72,42.72,0,0,0,7.37.56,23,23,0,0,0,5.8-.63,11.8,11.8,0,0,0,3.9-1.72A6.59,6.59,0,0,0,709,70a7.42,7.42,0,0,0,.69-3.16,4.67,4.67,0,0,0-.84-2.79,9.5,9.5,0,0,0-2.21-2.16A19.82,19.82,0,0,0,703.51,60l-3.6-1.71q-1.85-.88-3.6-1.9a16.25,16.25,0,0,1-3.13-2.34A10.57,10.57,0,0,1,691,51a9.32,9.32,0,0,1-.84-4.08,11.32,11.32,0,0,1,1.25-5.15,13,13,0,0,1,3.69-4.39,19.07,19.07,0,0,1,6-3.06,26.94,26.94,0,0,1,8.21-1.14q1.16,0,2.57.11t2.85,0.3q1.44,0.19,2.81.44t2.5,0.53l-1.16,5.63A36.63,36.63,0,0,0,713.66,39a34.48,34.48,0,0,0-5.19-.4,21,21,0,0,0-5.27.58,11.22,11.22,0,0,0-3.66,1.6,6.62,6.62,0,0,0-2.14,2.41,6.49,6.49,0,0,0-.7,3,4.61,4.61,0,0,0,.84,2.76A8.83,8.83,0,0,0,699.77,51a22.57,22.57,0,0,0,3.15,1.78l3.6,1.71q1.85,0.88,3.6,1.9a16,16,0,0,1,3.15,2.37,10.82,10.82,0,0,1,2.23,3.13,9.61,9.61,0,0,1,.84,4.17A12.37,12.37,0,0,1,715,71.73a12.86,12.86,0,0,1-3.88,4.54,19.8,19.8,0,0,1-6.38,3A31.67,31.67,0,0,1,696,80.4Z" transform="translate(-10.76 -27.42)"/><path class="cls-3" d="M753.12,79.27a34.58,34.58,0,0,1-4.38.76,37.06,37.06,0,0,1-3.85.23,20.86,20.86,0,0,1-6.13-.79,7.85,7.85,0,0,1-5.87-7,20.06,20.06,0,0,1,.44-6.63l3.23-16.28h-9.88l1-5.13h9.84l2-9.7L746,33.18l-2.32,11.29h15.86l-1,5.13H742.68l-3.3,16.49a16.23,16.23,0,0,0-.39,4.13,5.51,5.51,0,0,0,.84,2.79A4.15,4.15,0,0,0,742,74.6a11,11,0,0,0,3.59.49,25.47,25.47,0,0,0,3.27-.26,42,42,0,0,0,4.29-.83v5.27Z" transform="translate(-10.76 -27.42)"/><path class="cls-3" d="M795.2,63.56q-0.14.67-.3,1.76t-0.37,2.94L794,72.89q-0.32,2.79-.74,6.87H787.5l0.88-8.12a18.83,18.83,0,0,1-5.85,6.49,13.27,13.27,0,0,1-7.47,2.27q-5.59,0-7.93-3.37t-1-9.91l4.54-22.64h6.12L772.24,67q-0.88,4.25.12,6.19t3.85,1.93a7,7,0,0,0,3-.7,12.57,12.57,0,0,0,2.92-2,20.34,20.34,0,0,0,2.71-2.92A29.33,29.33,0,0,0,789,62a28.2,28.2,0,0,0,1.2-4.17l2.67-13.32H799Z" transform="translate(-10.76 -27.42)"/><path class="cls-3" d="M824.66,44a36.35,36.35,0,0,1,4.27.21,20.19,20.19,0,0,1,3.29.67l3-14.84h6.12l-6.71,33.47q-0.14.67-.3,1.76t-0.37,2.94l-0.53,4.64q-0.32,2.79-.74,6.87h-5.77l0.88-8.12a18.68,18.68,0,0,1-5.89,6.49,13.44,13.44,0,0,1-7.51,2.27,10.7,10.7,0,0,1-4.41-.84,8.12,8.12,0,0,1-3.11-2.41A10.44,10.44,0,0,1,805,73.4a18.34,18.34,0,0,1-.6-4.85A33.31,33.31,0,0,1,805.73,59a23.69,23.69,0,0,1,3.88-7.79A18.56,18.56,0,0,1,816,46,18.85,18.85,0,0,1,824.66,44ZM810.6,68a10,10,0,0,0,1.16,5.24,4.07,4.07,0,0,0,3.76,1.9,7.12,7.12,0,0,0,3-.7,13,13,0,0,0,3-1.93,19.06,19.06,0,0,0,2.72-2.9A29.59,29.59,0,0,0,826.58,66a28.77,28.77,0,0,0,3-8.17l1.44-7.24a20.49,20.49,0,0,0-3.39-1.11,14.31,14.31,0,0,0-3.22-.4,12,12,0,0,0-5,1,12.25,12.25,0,0,0-3.69,2.57,13.69,13.69,0,0,0-2.53,3.6,23.91,23.91,0,0,0-1.56,4.13,27.1,27.1,0,0,0-.81,4.11A31.51,31.51,0,0,0,810.6,68Z" transform="translate(-10.76 -27.42)"/><path class="cls-3" d="M874.37,77.55a24.06,24.06,0,0,1-5.12,2.09,21.16,21.16,0,0,1-5.75.76,10.91,10.91,0,0,1-4.18-.7,5.25,5.25,0,0,1-2.58-2.23,8.43,8.43,0,0,1-1-3.92,25.16,25.16,0,0,1,.56-5.8l2.39-11.81a15.82,15.82,0,0,0,.4-3.36,5.7,5.7,0,0,0-.37-2.16,2.17,2.17,0,0,0-1-1.14,3.61,3.61,0,0,0-1.6-.33,12.55,12.55,0,0,0-4.71.93,41,41,0,0,0-4.71,2.27V46.72a24.75,24.75,0,0,1,5.12-2.11,20.73,20.73,0,0,1,5.75-.77,10.91,10.91,0,0,1,4.18.7,5.25,5.25,0,0,1,2.58,2.23,8.43,8.43,0,0,1,1,3.92,25.15,25.15,0,0,1-.56,5.8L862.35,68.3a18.78,18.78,0,0,0-.39,3.38,5.22,5.22,0,0,0,.37,2.14,2.27,2.27,0,0,0,1,1.14,3.5,3.5,0,0,0,1.58.33,12.54,12.54,0,0,0,4.71-.93,44.79,44.79,0,0,0,4.71-2.23v5.41ZM859.85,34.69a5.09,5.09,0,0,1,.39-2,4.79,4.79,0,0,1,1.07-1.58,5.15,5.15,0,0,1,1.6-1.05,5,5,0,0,1,2-.39,4.6,4.6,0,0,1,1.86.37,4.72,4.72,0,0,1,1.46,1,4.25,4.25,0,0,1,.95,1.46,4.83,4.83,0,0,1,.33,1.79,5.09,5.09,0,0,1-.39,2A4.78,4.78,0,0,1,868,37.86a5.14,5.14,0,0,1-1.6,1.05,5,5,0,0,1-2,.39,4.72,4.72,0,0,1-1.88-.37,4.45,4.45,0,0,1-1.46-1,4.38,4.38,0,0,1-.93-1.46A4.83,4.83,0,0,1,859.85,34.69Z" transform="translate(-10.76 -27.42)"/><path class="cls-3" d="M896.56,80.4q-6.33,0-9.86-3.25t-3.53-9.76a27.47,27.47,0,0,1,.62-5.78,26.64,26.64,0,0,1,1.81-5.48,24.21,24.21,0,0,1,3-4.87,20,20,0,0,1,4-3.9,18.83,18.83,0,0,1,5-2.58,18.64,18.64,0,0,1,6-.93,17.82,17.82,0,0,1,5.64.83,10.94,10.94,0,0,1,4.18,2.46,10.78,10.78,0,0,1,2.62,4.08,16.17,16.17,0,0,1,.91,5.68,27.31,27.31,0,0,1-.62,5.75,26.63,26.63,0,0,1-1.81,5.48,24.2,24.2,0,0,1-3,4.87,20.15,20.15,0,0,1-4,3.9,18.49,18.49,0,0,1-5,2.58A18.68,18.68,0,0,1,896.56,80.4Zm14.17-22.89q0-4.25-2-6.36A7.67,7.67,0,0,0,902.88,49a10.65,10.65,0,0,0-4,.76,11.67,11.67,0,0,0-3.36,2.07,15.12,15.12,0,0,0-2.64,3.06,19.62,19.62,0,0,0-1.9,3.69,23,23,0,0,0-1.53,8.1q0,4.25,2,6.38a7.64,7.64,0,0,0,5.84,2.13,10.62,10.62,0,0,0,4.06-.76,11.73,11.73,0,0,0,3.34-2.07,15.12,15.12,0,0,0,2.64-3.06,19.42,19.42,0,0,0,1.9-3.71,22.94,22.94,0,0,0,1.14-4.06A22.31,22.31,0,0,0,910.72,57.51Z" transform="translate(-10.76 -27.42)"/><path class="cls-3" d="M954.07,50.37q-3.2-.74-5.73-1.09a33.19,33.19,0,0,0-4.5-.35,19.46,19.46,0,0,0-4.17.39,9.16,9.16,0,0,0-2.87,1.09,4.5,4.5,0,0,0-1.65,1.71,4.72,4.72,0,0,0-.53,2.23,3,3,0,0,0,.4,1.56,4.33,4.33,0,0,0,1.28,1.3,12.19,12.19,0,0,0,2.34,1.21q1.46,0.6,3.6,1.27a33.66,33.66,0,0,1,4.38,1.74,11.67,11.67,0,0,1,3,2,6.94,6.94,0,0,1,1.69,2.5,8.78,8.78,0,0,1,.53,3.16,9.67,9.67,0,0,1-1.2,4.85,10.32,10.32,0,0,1-3.34,3.53,16.24,16.24,0,0,1-5.15,2.16,27.62,27.62,0,0,1-6.59.74q-3.37,0-6.42-.28a40.21,40.21,0,0,1-5.68-.91v-6a41.57,41.57,0,0,0,6.29,1.51,39.77,39.77,0,0,0,6.19.49q5,0,7.28-1.41a4.76,4.76,0,0,0,2.29-4.36,3,3,0,0,0-.35-1.42,3.68,3.68,0,0,0-1.2-1.23,12.39,12.39,0,0,0-2.32-1.18q-1.48-.6-3.76-1.27A30.47,30.47,0,0,1,934,62.94a12.18,12.18,0,0,1-3-1.9,7.68,7.68,0,0,1-2-2.6,8.22,8.22,0,0,1-.69-3.46,10.17,10.17,0,0,1,.95-4.38,9.52,9.52,0,0,1,2.94-3.53,15,15,0,0,1,5-2.37,26.21,26.21,0,0,1,7.14-.86q1,0,2.16.07T949,44.13q1.27,0.16,2.55.37T954.07,45v5.38Z" transform="translate(-10.76 -27.42)"/><path class="cls-1" d="M967.57,28.86h2.6q6.79,0,10.09,3.18t3.3,9.65v8.12a11.21,11.21,0,0,0,.39,3.08,5,5,0,0,0,1.35,2.29,6.29,6.29,0,0,0,2.58,1.42,14.09,14.09,0,0,0,4,.49h1.51V62h-1.51a17.26,17.26,0,0,0-4.2.42,5.74,5.74,0,0,0-2.55,1.28,4.53,4.53,0,0,0-1.27,2.2,12.54,12.54,0,0,0-.35,3.16v12.3a18.73,18.73,0,0,1-.7,5.33,9.84,9.84,0,0,1-2.29,4,10.25,10.25,0,0,1-4.15,2.57,19.1,19.1,0,0,1-6.26.9h-2.6V89.26h2.11q8.12,0,8.12-7.91V69.18q0-8.58,7.42-9.63-7.49-.81-7.49-9.67V41.83q0-8.05-8.05-8.05h-2.11V28.86Z" transform="translate(-10.76 -27.42)"/></svg>