<svg id="Layer_1" data-name="Layer 1" xmlns="http://www.w3.org/2000/svg" viewBox="0 0 349.31 67.11"><defs><style>.cls-1{fill:#fff;}.cls-2{fill:#c9862a;}.cls-3{fill:#1baa4b;}</style></defs><title>logo-small</title><path class="cls-1" d="M58.54,46.57l-5.13,35.3H46L40.9,67.1l-1-3.59-1.16,3.8L33.83,81.86H26.62l-5.1-35.3h6l3,24,0.63,5.34,1.51-4.68,5.13-15.86h4.39L47.65,71l1.58,4.68,0.53-5L52.5,46.57h6Z" transform="translate(-21.52 -29.52)"/><path class="cls-1" d="M86.56,96.63q-16.21-15-16.21-33.19A42.48,42.48,0,0,1,71.22,55,40.1,40.1,0,0,1,74,46.46,46.45,46.45,0,0,1,79.06,38a61.77,61.77,0,0,1,7.65-8.44l3.55,3.62Q76.61,46.6,76.61,63a37.24,37.24,0,0,0,3.45,15.68,48.45,48.45,0,0,0,10.2,14.2Z" transform="translate(-21.52 -29.52)"/><path class="cls-2" d="M136.34,37.88a41,41,0,0,0-8.3-1q-8.26,0-8.26,8.65V51.7h15.47v5.1H119.79V81.86h-6.22V56.8H102.21V51.7h11.36V45.86q0-14.1,14.7-14.1a43.52,43.52,0,0,1,8.09.84v5.27Z" transform="translate(-21.52 -29.52)"/><path class="cls-1" d="M151.81,29.52Q168,44.53,168,62.92a42.29,42.29,0,0,1-.77,7.88,39.16,39.16,0,0,1-2.64,8.35,47.87,47.87,0,0,1-5,8.67,59,59,0,0,1-7.93,8.82L148.12,93a48.45,48.45,0,0,0,10.23-14.17,36.79,36.79,0,0,0,3.38-15.47q0-16.73-13.61-30.09Z" transform="translate(-21.52 -29.52)"/><path class="cls-1" d="M210.1,96.28h-2.6q-6.79,0-10.09-3.18t-3.3-9.65V71.35a11.21,11.21,0,0,0-.39-3.08A5,5,0,0,0,192.37,66a6.31,6.31,0,0,0-2.57-1.42,13.91,13.91,0,0,0-4-.49h-1.51V59.19h1.51a17,17,0,0,0,4.18-.42,5.72,5.72,0,0,0,2.53-1.28,4.52,4.52,0,0,0,1.27-2.2,12.54,12.54,0,0,0,.35-3.16V43.79a18.73,18.73,0,0,1,.7-5.33,9.74,9.74,0,0,1,2.3-4,10.42,10.42,0,0,1,4.15-2.57,18.94,18.94,0,0,1,6.24-.9h2.6v4.92H208q-8.16,0-8.16,7.91V52q0,8.58-7.42,9.67,7.49,0.74,7.49,9.63v12q0,8.05,8.09,8.05h2.07v4.92Z" transform="translate(-21.52 -29.52)"/><path class="cls-3" d="M258.69,32.19L223,89.42h-6.26l35.65-57.23h6.26Z" transform="translate(-21.52 -29.52)"/><path class="cls-3" d="M298.27,32.19L262.63,89.42h-6.26L292,32.19h6.26Z" transform="translate(-21.52 -29.52)"/><path class="cls-3" d="M331.46,52.47q-3.2-.74-5.73-1.09a33.19,33.19,0,0,0-4.5-.35,19.46,19.46,0,0,0-4.17.39,9.16,9.16,0,0,0-2.87,1.09,4.5,4.5,0,0,0-1.65,1.71,4.72,4.72,0,0,0-.53,2.23,3,3,0,0,0,.4,1.56,4.33,4.33,0,0,0,1.28,1.3A12.19,12.19,0,0,0,316,60.52q1.46,0.6,3.6,1.27A33.66,33.66,0,0,1,324,63.53a11.67,11.67,0,0,1,3,2,6.93,6.93,0,0,1,1.69,2.5,8.78,8.78,0,0,1,.53,3.16,9.67,9.67,0,0,1-1.2,4.85,10.32,10.32,0,0,1-3.34,3.53,16.24,16.24,0,0,1-5.15,2.16,27.62,27.62,0,0,1-6.59.74q-3.37,0-6.42-.28a40.21,40.21,0,0,1-5.68-.91v-6a41.57,41.57,0,0,0,6.29,1.51,39.77,39.77,0,0,0,6.19.49q5,0,7.28-1.41a4.76,4.76,0,0,0,2.29-4.36,3,3,0,0,0-.35-1.42,3.68,3.68,0,0,0-1.2-1.23A12.39,12.39,0,0,0,319,67.73q-1.48-.6-3.76-1.27A30.47,30.47,0,0,1,311.4,65a12.18,12.18,0,0,1-3-1.9,7.68,7.68,0,0,1-2-2.6,8.22,8.22,0,0,1-.69-3.46,10.17,10.17,0,0,1,.95-4.38,9.52,9.52,0,0,1,2.94-3.53,15,15,0,0,1,5-2.37,26.21,26.21,0,0,1,7.14-.86q1,0,2.16.07t2.44,0.23q1.27,0.16,2.55.37t2.51,0.49v5.38Z" transform="translate(-21.52 -29.52)"/><path class="cls-1" d="M345,31h2.6q6.79,0,10.09,3.18t3.3,9.65v8.12a11.21,11.21,0,0,0,.39,3.08,5,5,0,0,0,1.35,2.29,6.29,6.29,0,0,0,2.58,1.42,14.09,14.09,0,0,0,4,.49h1.51v4.89h-1.51a17.26,17.26,0,0,0-4.2.42,5.74,5.74,0,0,0-2.55,1.28,4.53,4.53,0,0,0-1.27,2.2,12.54,12.54,0,0,0-.35,3.16v12.3a18.73,18.73,0,0,1-.7,5.33,9.84,9.84,0,0,1-2.29,4,10.25,10.25,0,0,1-4.15,2.57,19.1,19.1,0,0,1-6.26.9H345V91.36h2.11q8.12,0,8.12-7.91V71.28q0-8.58,7.42-9.63-7.49-.81-7.49-9.67V43.93q0-8.05-8.05-8.05H345V31Z" transform="translate(-21.52 -29.52)"/></svg>